<?xml version="1.0" encoding="UTF-8" standalone="no"?>
<!DOCTYPE svg PUBLIC "-//W3C//DTD SVG 1.1//EN" "http://www.w3.org/Graphics/SVG/1.1/DTD/svg11.dtd">
<svg version="1.1" xmlns="http://www.w3.org/2000/svg" xmlns:xlink="http://www.w3.org/1999/xlink" preserveAspectRatio="xMidYMid meet" viewBox="0 0 640 640" width="640" height="640"><defs><path d="M323.32 0.08L324.98 0.19L326.63 0.33L328.29 0.52L329.93 0.76L331.58 1.03L333.21 1.35L334.84 1.7L336.47 2.1L338.08 2.54L339.69 3.03L341.28 3.56L342.87 4.12L344.44 4.73L346 5.39L347.55 6.08L349.09 6.82L350.6 7.6L352.11 8.42L535.25 111.56L535.51 111.65L536.3 111.96L537.09 112.3L537.86 112.67L538.63 113.08L560.39 125.33L560.94 125.6L562.25 126.31L563.53 127.07L564.77 127.88L565.99 128.73L567.16 129.63L568.3 130.57L569.41 131.56L570.47 132.58L571.5 133.64L572.48 134.75L573.42 135.89L574.32 137.06L575.17 138.28L575.98 139.52L576.74 140.8L577.45 142.11L578.11 143.44L578.72 144.81L579.28 146.21L579.78 147.63L580.23 149.07L580.63 150.54L580.96 152.03L581.24 153.55L581.46 155.08L581.62 156.63L581.71 158.2L581.75 159.78L581.71 161.37L581.62 162.94L581.46 164.49L581.24 166.02L580.96 167.54L580.63 169.03L580.23 170.5L579.78 171.94L579.28 173.36L578.72 174.76L578.11 176.12L577.45 177.46L576.74 178.77L575.98 180.05L575.17 181.29L574.32 182.5L573.42 183.68L572.48 184.82L571.5 185.92L570.47 186.99L569.41 188.01L568.3 189L567.16 189.94L565.99 190.84L564.77 191.69L563.53 192.5L562.25 193.26L560.94 193.97L559.61 194.63L558.24 195.24L556.84 195.8L555.42 196.3L553.98 196.75L552.51 197.15L551.02 197.48L549.5 197.76L547.97 197.98L546.42 198.14L544.85 198.23L543.27 198.26L541.68 198.23L540.11 198.14L538.56 197.98L537.03 197.76L535.51 197.48L534.02 197.15L532.55 196.75L531.11 196.3L529.69 195.8L528.29 195.24L526.93 194.63L525.59 193.97L524.92 193.61L524.24 193.27L523.47 192.86L500.57 179.98L499.82 179.54L499.1 179.07L498.41 178.58L497.73 178.07L497.48 177.86L341.5 90.42L340.49 89.87L339.47 89.35L338.45 88.86L337.41 88.4L336.36 87.96L335.31 87.56L334.25 87.18L333.18 86.83L332.11 86.5L331.02 86.21L329.94 85.94L328.85 85.7L327.75 85.49L326.65 85.31L325.55 85.16L324.44 85.03L323.33 84.93L322.22 84.86L321.11 84.82L320 84.81L318.89 84.82L317.78 84.86L316.67 84.93L315.56 85.03L314.45 85.16L313.35 85.31L312.25 85.49L311.15 85.7L310.06 85.94L308.98 86.21L307.89 86.5L306.82 86.83L305.75 87.18L304.69 87.56L303.64 87.96L302.59 88.4L301.55 88.86L300.53 89.35L299.51 89.87L298.5 90.42L125.66 187.31L124.67 187.88L123.7 188.47L122.76 189.09L121.83 189.73L120.92 190.4L120.03 191.08L119.17 191.79L118.32 192.52L117.5 193.27L116.7 194.04L115.91 194.83L115.16 195.64L114.42 196.47L113.71 197.31L113.02 198.18L112.35 199.06L111.71 199.95L111.09 200.87L110.5 201.8L109.93 202.74L109.38 203.7L108.86 204.67L108.37 205.66L107.9 206.66L107.46 207.67L107.04 208.69L106.65 209.73L106.29 210.77L105.96 211.83L105.65 212.9L105.37 213.97L105.12 215.06L104.9 216.15L104.7 217.25L104.54 218.36L104.4 219.48L104.29 220.6L104.22 221.73L104.17 222.87L104.16 224L104.16 416.69L104.17 417.83L104.22 418.96L104.29 420.09L104.4 421.22L104.54 422.33L104.7 423.44L104.9 424.54L105.12 425.64L105.37 426.72L105.65 427.8L105.96 428.87L106.29 429.92L106.65 430.97L107.04 432.01L107.46 433.03L107.9 434.04L108.37 435.04L108.86 436.03L109.38 437L109.93 437.96L110.5 438.9L111.09 439.83L111.71 440.74L112.35 441.64L113.02 442.52L113.71 443.38L114.42 444.23L115.16 445.06L115.91 445.87L116.7 446.66L117.5 447.43L118.32 448.18L119.17 448.9L120.03 449.61L120.92 450.3L121.83 450.96L122.76 451.61L123.7 452.22L124.67 452.82L125.66 453.39L298.5 550.28L299.51 550.82L300.53 551.34L301.55 551.83L302.59 552.3L303.64 552.73L304.69 553.14L305.75 553.52L306.82 553.87L307.89 554.19L308.98 554.49L310.06 554.75L311.15 554.99L312.25 555.2L313.35 555.39L314.45 555.54L315.56 555.67L316.67 555.76L317.78 555.83L318.89 555.88L320 555.89L321.11 555.88L322.22 555.83L323.33 555.76L324.44 555.67L325.55 555.54L326.65 555.39L327.75 555.2L328.85 554.99L329.94 554.75L331.02 554.49L332.11 554.19L333.18 553.87L334.25 553.52L335.31 553.14L336.36 552.73L337.41 552.3L338.45 551.83L339.47 551.34L340.49 550.82L341.5 550.28L514.34 453.39L515.33 452.82L516.3 452.22L517.24 451.61L518.17 450.96L519.08 450.3L519.97 449.61L520.83 448.9L521.68 448.18L522.5 447.43L523.3 446.66L524.09 445.87L524.84 445.06L525.58 444.23L526.29 443.38L526.98 442.52L527.65 441.64L528.29 440.74L528.91 439.83L529.5 438.9L530.07 437.96L530.62 437L531.14 436.03L531.63 435.04L532.1 434.04L532.54 433.03L532.96 432.01L533.35 430.97L533.71 429.92L534.04 428.87L534.35 427.8L534.63 426.72L534.88 425.64L535.1 424.54L535.3 423.44L535.46 422.33L535.6 421.22L535.71 420.09L535.78 418.96L535.83 417.83L535.84 416.69L535.84 356.8L535.78 356.14L535.68 354.56L535.65 352.97L535.68 351.38L535.78 349.8L535.93 348.24L536.15 346.7L536.43 345.18L536.77 343.68L537.17 342.2L537.62 340.75L538.13 339.32L538.69 337.92L539.3 336.55L539.97 335.2L540.68 333.89L541.45 332.6L542.26 331.35L543.11 330.13L544.02 328.95L544.96 327.8L545.95 326.7L546.98 325.63L548.05 324.6L549.16 323.61L550.31 322.66L551.49 321.76L552.71 320.9L553.96 320.09L555.24 319.33L556.56 318.61L557.9 317.95L559.28 317.33L560.68 316.77L562.1 316.27L563.56 315.81L565.03 315.42L566.53 315.08L568.05 314.8L569.59 314.58L571.15 314.42L572.73 314.33L574.32 314.29L575.92 314.33L577.49 314.42L579.05 314.58L580.59 314.8L582.11 315.08L583.61 315.42L585.09 315.81L586.54 316.27L587.97 316.77L589.37 317.33L590.75 317.95L592.09 318.61L593.41 319.33L594.69 320.09L595.94 320.9L597.16 321.76L598.34 322.66L599.49 323.61L600.6 324.6L601.67 325.63L602.7 326.7L603.69 327.8L604.63 328.95L605.53 330.13L606.39 331.35L607.2 332.6L607.97 333.89L608.68 335.2L609.35 336.55L609.96 337.92L610.52 339.32L611.03 340.75L611.48 342.2L611.88 343.68L612.21 345.18L612.49 346.7L612.71 348.24L612.87 349.8L612.97 351.38L612.97 351.6L613 351.6L613 448.5L612.98 450.21L612.91 451.91L612.79 453.59L612.64 455.27L612.43 456.94L612.19 458.6L611.9 460.25L611.56 461.89L611.19 463.51L610.77 465.12L610.31 466.72L609.81 468.3L609.27 469.86L608.69 471.41L608.07 472.94L607.41 474.46L606.71 475.95L605.97 477.43L605.2 478.88L604.38 480.32L603.53 481.73L602.65 483.12L601.72 484.49L600.76 485.83L599.77 487.15L598.74 488.44L597.67 489.71L596.57 490.95L595.44 492.16L594.28 493.34L593.08 494.5L591.85 495.62L590.59 496.71L589.29 497.77L587.97 498.8L586.61 499.8L585.23 500.76L583.81 501.69L582.37 502.58L580.89 503.44L352.11 632.28L350.6 633.1L349.09 633.88L347.55 634.62L346 635.31L344.44 635.96L342.87 636.57L341.28 637.14L339.69 637.67L338.08 638.15L336.47 638.59L334.84 638.99L333.21 639.35L331.58 639.67L329.93 639.94L328.29 640.17L326.63 640.36L324.98 640.51L323.32 640.61L321.66 640.68L320 640.7L318.34 640.68L316.68 640.61L315.02 640.51L313.37 640.36L311.71 640.17L310.07 639.94L308.42 639.67L306.79 639.35L305.16 638.99L303.53 638.59L301.92 638.15L300.31 637.67L298.72 637.14L297.13 636.57L295.56 635.96L294 635.31L292.45 634.62L290.91 633.88L289.4 633.1L287.89 632.28L59.11 503.44L57.63 502.58L56.19 501.69L54.77 500.76L53.39 499.8L52.03 498.8L50.71 497.77L49.41 496.71L48.15 495.62L46.92 494.5L45.72 493.34L44.56 492.16L43.43 490.95L42.33 489.71L41.26 488.44L40.23 487.15L39.24 485.83L38.28 484.49L37.35 483.12L36.47 481.73L35.62 480.32L34.8 478.88L34.03 477.43L33.29 475.95L32.59 474.46L31.93 472.94L31.31 471.41L30.73 469.86L30.19 468.3L29.69 466.72L29.23 465.12L28.81 463.51L28.44 461.89L28.1 460.25L27.81 458.6L27.57 456.94L27.36 455.27L27.21 453.59L27.09 451.91L27.02 450.21L27 448.5L27 192.19L27.02 190.49L27.09 188.79L27.21 187.1L27.36 185.42L27.57 183.75L27.81 182.09L28.1 180.45L28.44 178.81L28.81 177.19L29.23 175.58L29.69 173.98L30.19 172.4L30.73 170.83L31.31 169.28L31.93 167.75L32.59 166.24L33.29 164.74L34.03 163.27L34.8 161.81L35.62 160.38L36.47 158.97L37.35 157.57L38.28 156.21L39.24 154.87L40.23 153.55L41.26 152.25L42.33 150.99L43.43 149.75L44.56 148.54L45.72 147.35L46.92 146.2L48.15 145.08L49.41 143.98L50.71 142.92L52.03 141.89L53.39 140.9L54.77 139.94L56.19 139.01L57.63 138.12L59.11 137.26L287.89 8.42L289.4 7.6L290.91 6.82L292.45 6.08L294 5.39L295.56 4.73L297.13 4.12L298.72 3.56L300.31 3.03L301.92 2.54L303.53 2.1L305.16 1.7L306.79 1.35L308.42 1.03L310.07 0.76L311.71 0.52L313.37 0.33L315.02 0.19L316.68 0.08L318.34 0.02L320 0L321.66 0.02L323.32 0.08Z" id="b49vQGPlW8"></path><path d="M194.01 214.66L195.56 214.82L197.09 215.03L198.6 215.3L200.09 215.63L201.56 216.02L203.01 216.46L204.43 216.96L205.82 217.5L207.19 218.1L208.53 218.75L209.84 219.45L211.12 220.19L212.36 220.99L213.57 221.82L214.5 222.52L286.55 264.15L286.9 264.36L287.24 264.59L287.58 264.82L287.9 265.07L288.21 265.33L288.51 265.6L288.79 265.87L288.83 265.91L288.94 265.96L290.25 266.66L291.53 267.41L292.77 268.2L293.98 269.04L295.16 269.92L296.3 270.84L297.4 271.8L298.47 272.81L299.49 273.85L300.48 274.94L301.42 276.05L302.32 277.21L303.17 278.4L303.98 279.62L304.74 280.87L305.45 282.16L305.68 282.61L306.69 282.16L308.08 281.6L309.5 281.1L310.95 280.65L312.42 280.25L313.91 279.92L315.42 279.64L316.95 279.42L318.51 279.26L320.08 279.16L321.66 279.13L323.25 279.16L324.81 279.26L326.37 279.42L327.9 279.64L329.41 279.92L330.9 280.25L332.37 280.65L333.82 281.1L335.24 281.6L336.63 282.16L338 282.77L339.34 283.43L340.65 284.14L341.92 284.9L343.17 285.71L344.38 286.56L345.56 287.46L346.7 288.4L347.8 289.38L348.86 290.41L349.89 291.47L350.87 292.58L351.81 293.72L352.71 294.89L353.57 296.1L354.37 297.35L355.13 298.63L355.84 299.94L356.5 301.27L357.11 302.64L357.67 304.04L358.18 305.46L358.63 306.9L359.02 308.37L359.36 309.86L359.64 311.38L359.86 312.91L360.01 314.46L360.11 316.03L360.14 317.61L360.12 318.59L360.13 318.69L360.14 319.37L360.14 466.92L360.14 466.95L360.24 468.52L360.27 470.1L360.24 471.69L360.14 473.26L359.99 474.81L359.77 476.34L359.49 477.85L359.15 479.35L358.76 480.82L358.31 482.26L357.8 483.68L357.25 485.08L356.63 486.44L355.97 487.78L355.26 489.09L354.5 490.37L353.7 491.61L352.84 492.82L351.94 494L351 495.14L350.02 496.24L349 497.31L347.93 498.33L346.83 499.32L345.69 500.26L344.51 501.16L343.3 502.01L342.05 502.82L340.78 503.58L339.47 504.29L338.13 504.95L336.76 505.56L335.37 506.12L333.95 506.62L332.5 507.07L331.03 507.46L329.54 507.8L328.03 508.08L326.5 508.3L324.94 508.46L323.38 508.55L321.79 508.58L320.21 508.55L318.64 508.46L317.09 508.3L315.55 508.08L314.04 507.8L312.55 507.46L311.08 507.07L309.63 506.62L308.21 506.12L306.82 505.56L305.45 504.95L304.11 504.29L302.8 503.58L301.53 502.82L300.28 502.01L299.07 501.16L297.89 500.26L296.75 499.32L295.65 498.33L294.59 497.31L293.56 496.24L292.58 495.14L291.64 494L290.74 492.82L289.89 491.61L289.08 490.37L288.32 489.09L287.61 487.78L286.95 486.44L286.34 485.08L285.78 483.68L285.27 482.26L284.82 480.82L284.43 479.35L284.4 479.22L284.34 479.09L284.08 478.51L283.84 477.92L283.8 477.81L283.67 477.86L282.25 478.36L280.8 478.81L279.34 479.21L277.84 479.54L276.33 479.82L274.8 480.04L273.25 480.2L271.68 480.29L270.09 480.33L268.51 480.29L266.94 480.2L265.39 480.04L263.85 479.82L262.34 479.54L260.85 479.21L259.38 478.81L257.93 478.36L256.51 477.86L255.12 477.3L253.75 476.69L252.41 476.03L251.11 475.32L249.83 474.56L248.58 473.75L248.52 473.7L172.53 429.83L172.18 429.62L171.84 429.4L171.52 429.16L171.21 428.92L170.91 428.66L170.62 428.4L170.45 428.22L169.34 427.52L168.13 426.69L166.96 425.81L165.82 424.88L164.71 423.92L163.65 422.91L162.62 421.87L161.64 420.79L160.7 419.67L159.8 418.52L158.95 417.33L158.14 416.11L157.38 414.85L156.67 413.57L156.01 412.26L155.4 410.92L154.84 409.55L154.33 408.16L153.88 406.74L153.49 405.3L153.15 403.83L152.88 402.35L152.66 400.85L152.5 399.33L152.4 397.79L152.4 397.43L152.38 397.24L152.37 396.59L152.37 249.23L152.38 248.58L152.42 247.93L152.49 247.29L152.58 246.66L152.69 246.04L152.83 245.43L152.99 244.82L153.18 244.23L153.39 243.64L153.4 243.61L153.49 243.21L153.88 241.77L154.33 240.35L154.84 238.96L155.4 237.59L156.01 236.25L156.67 234.94L157.38 233.66L158.14 232.4L158.95 231.18L159.8 229.99L160.7 228.84L161.64 227.72L162.62 226.64L163.65 225.6L164.71 224.59L165.82 223.63L166.96 222.7L168.13 221.82L169.34 220.99L170.59 220.19L171.87 219.45L173.17 218.75L174.51 218.1L175.88 217.5L177.27 216.96L178.69 216.46L180.14 216.02L181.61 215.63L183.1 215.3L184.61 215.03L186.15 214.82L187.7 214.66L189.27 214.57L190.85 214.54L192.44 214.57L194.01 214.66ZM282.79 404.62L282.79 335.51L281.98 335.76L280.51 336.15L279.02 336.48L277.5 336.75L275.97 336.96L274.42 337.12L272.85 337.21L271.26 337.24L269.68 337.21L268.11 337.12L266.56 336.96L265.03 336.75L263.51 336.48L262.02 336.15L260.55 335.76L259.11 335.32L257.69 334.82L257.18 334.63L257.05 334.59L256.69 334.47L256.34 334.33L255.99 334.17L255.65 334L255.57 333.96L254.92 333.68L253.59 333.03L252.28 332.33L251 331.59L249.76 330.79L248.54 329.96L248.25 329.74L229.33 318.81L229.33 373.76L282.79 404.62Z" id="bg24fTksN"></path><path d="M450.53 311.63L452.09 311.79L453.63 312.01L455.15 312.29L456.65 312.63L458.12 313.03L459.58 313.48L461 313.99L462.41 314.55L463.78 315.17L465.12 315.84L466.44 316.55L467.72 317.32L468.98 318.13L470.19 319L471.38 319.9L472.52 320.85L473.63 321.84L474.7 322.88L475.73 323.95L476.72 325.06L477.66 326.21L478.57 327.4L479.42 328.62L480.24 329.88L481 331.16L481.71 332.48L482.38 333.83L482.99 335.21L483.55 336.62L484.06 338.05L484.51 339.51L484.91 340.99L485.25 342.49L485.53 344.02L485.75 345.57L485.91 347.13L486 348.71L486.03 350.31L486.03 350.52L486.03 350.73L486.03 410.1L486.02 410.84L486.02 410.85L486.03 411.27L486.03 411.92L486 413.52L485.91 415.1L485.75 416.67L485.53 418.22L485.25 419.74L484.91 421.25L484.51 422.73L484.06 424.18L483.55 425.62L482.99 427.02L482.38 428.4L481.71 429.75L481 431.07L480.24 432.36L479.42 433.62L478.57 434.84L477.66 436.02L476.72 437.17L475.73 438.29L474.7 439.36L473.63 440.39L472.52 441.39L471.38 442.34L470.19 443.24L468.98 444.1L467.72 444.91L466.44 445.68L465.12 446.4L463.78 447.07L462.41 447.68L461 448.24L459.58 448.75L458.12 449.21L456.65 449.6L455.15 449.94L453.63 450.22L452.09 450.45L450.53 450.6L448.95 450.7L447.36 450.73L445.76 450.7L444.19 450.6L442.63 450.45L441.09 450.22L439.57 449.94L438.07 449.6L436.59 449.21L435.14 448.75L433.71 448.24L432.31 447.68L430.93 447.07L429.59 446.4L428.27 445.68L426.99 444.91L425.74 444.1L424.52 443.24L423.34 442.34L422.19 441.39L421.08 440.39L420.01 439.36L418.98 438.29L418 437.17L417.05 436.02L416.15 434.84L415.29 433.62L414.48 432.36L413.72 431.07L413 429.75L412.34 428.4L411.72 427.02L411.16 425.62L410.65 424.18L410.2 422.73L409.81 421.25L409.47 419.74L409.19 418.22L408.97 416.67L408.81 415.1L408.71 413.52L408.68 411.92L408.69 411.27L408.7 410.63L408.73 409.98L408.77 409.34L408.81 408.7L408.87 408.07L408.88 408.01L408.88 354.16L408.81 353.49L408.71 351.91L408.68 350.31L408.69 349.66L408.7 349.02L408.73 348.37L408.77 347.73L408.81 347.09L408.87 346.46L408.94 345.82L409.02 345.19L409.1 344.57L409.2 343.94L409.31 343.32L409.42 342.71L409.55 342.09L409.69 341.48L409.83 340.88L409.99 340.28L410.15 339.68L410.33 339.08L410.51 338.49L410.7 337.91L410.9 337.32L411.11 336.75L411.33 336.17L411.56 335.6L411.8 335.04L412.04 334.48L412.29 333.92L412.56 333.37L412.83 332.82L413.11 332.28L413.39 331.75L413.69 331.22L413.99 330.69L414.3 330.17L414.62 329.65L414.94 329.14L415.28 328.64L415.62 328.14L415.97 327.65L416.32 327.16L416.86 326.45L417.41 325.76L417.98 325.08L418.56 324.41L419.16 323.76L419.77 323.12L420.4 322.49L421.04 321.88L421.7 321.29L422.36 320.7L423.04 320.14L423.74 319.59L424.44 319.05L425.16 318.53L425.89 318.03L426.64 317.54L427.39 317.07L428.16 316.62L428.93 316.19L429.72 315.77L430.52 315.37L431.33 314.99L432.15 314.62L432.98 314.28L433.82 313.95L434.66 313.64L435.52 313.36L436.39 313.09L437.26 312.84L438.14 312.61L439.03 312.41L439.93 312.22L440.84 312.05L441.75 311.91L442.67 311.79L443.59 311.68L444.52 311.61L445.46 311.55L446.41 311.51L447.36 311.5L448.95 311.54L450.53 311.63ZM450.14 216.59L451.7 216.75L453.24 216.97L454.76 217.25L456.26 217.59L457.73 217.99L459.19 218.44L460.61 218.95L462.02 219.52L463.39 220.13L464.73 220.8L466.05 221.52L467.33 222.28L468.58 223.1L469.8 223.96L470.98 224.86L472.13 225.81L473.24 226.8L474.31 227.84L475.34 228.91L476.33 230.02L477.27 231.17L478.18 232.36L479.03 233.58L479.84 234.84L480.61 236.12L481.32 237.44L481.99 238.79L482.6 240.17L483.16 241.58L483.67 243.01L484.12 244.47L484.52 245.95L484.86 247.46L485.14 248.98L485.36 250.53L485.51 252.09L485.61 253.67L485.64 255.27L485.61 256.87L485.51 258.45L485.36 260.02L485.14 261.56L484.86 263.09L484.52 264.59L484.12 266.08L483.67 267.53L483.16 268.97L482.6 270.37L481.99 271.75L481.32 273.1L480.61 274.42L479.84 275.71L479.03 276.97L478.18 278.19L477.27 279.37L476.33 280.52L475.34 281.64L474.31 282.71L473.24 283.74L472.13 284.74L470.98 285.68L469.8 286.59L468.58 287.45L467.33 288.26L466.05 289.03L464.73 289.75L463.39 290.41L462.02 291.03L460.61 291.59L459.19 292.1L457.73 292.56L456.26 292.95L454.76 293.29L453.24 293.57L451.7 293.79L450.14 293.95L448.56 294.05L446.97 294.08L445.37 294.05L443.8 293.95L442.24 293.79L440.7 293.57L439.18 293.29L437.68 292.95L436.2 292.56L434.75 292.1L433.32 291.59L431.92 291.03L430.54 290.41L429.2 289.75L427.88 289.03L426.6 288.26L425.35 287.45L424.13 286.59L422.95 285.68L421.8 284.74L420.69 283.74L419.62 282.71L418.59 281.64L417.61 280.52L416.66 279.37L415.76 278.19L414.9 276.97L414.09 275.71L413.33 274.42L412.61 273.1L411.95 271.75L411.33 270.37L410.77 268.97L410.26 267.53L409.81 266.08L409.42 264.59L409.08 263.09L408.8 261.56L408.58 260.02L408.42 258.45L408.32 256.87L408.29 255.27L408.3 254.62L408.31 253.98L408.34 253.33L408.38 252.69L408.42 252.05L408.48 251.42L408.55 250.78L408.62 250.15L408.71 249.53L408.81 248.9L408.92 248.28L409.03 247.67L409.16 247.05L409.3 246.45L409.44 245.84L409.6 245.24L409.76 244.64L409.94 244.04L410.12 243.45L410.31 242.87L410.51 242.28L410.72 241.71L410.94 241.13L411.17 240.56L411.41 240L411.65 239.44L411.9 238.88L412.17 238.33L412.44 237.79L412.71 237.24L413 236.71L413.3 236.18L413.6 235.65L413.91 235.13L414.23 234.61L414.55 234.1L414.89 233.6L415.23 233.1L415.58 232.61L415.93 232.12L416.47 231.41L417.02 230.72L417.59 230.04L418.17 229.37L418.77 228.72L419.38 228.08L420.01 227.45L420.65 226.84L421.3 226.25L421.97 225.67L422.65 225.1L423.35 224.55L424.05 224.01L424.77 223.49L425.5 222.99L426.25 222.5L427 222.03L427.77 221.58L428.54 221.15L429.33 220.73L430.13 220.33L430.94 219.95L431.76 219.58L432.59 219.24L433.43 218.91L434.27 218.61L435.13 218.32L436 218.05L436.87 217.8L437.75 217.57L438.64 217.37L439.54 217.18L440.44 217.01L441.36 216.87L442.28 216.75L443.2 216.65L444.13 216.57L445.07 216.51L446.02 216.47L446.97 216.46L448.56 216.5L450.14 216.59Z" id="a1ikszSRa4"></path></defs><g><g>
<g><use xlink:href="#b49vQGPlW8" opacity="1" fill="#ff4e4e" fill-opacity="0.96"></use></g>
<g><use xlink:href="#bg24fTksN" opacity="1" fill="#37d122" fill-opacity="1" stroke="#477" stroke-width="11" stroke-opacity="1"></use></g>
<g><use xlink:href="#a1ikszSRa4" opacity="1" fill="#37d122" fill-opacity="1" stroke="#477" stroke-width="11" stroke-opacity="1"></use></g></g></g></svg>